<svg width="120" height="120" viewBox="0 0 120 120" fill="none" xmlns="http://www.w3.org/2000/svg">
<g clip-path="url(#clip0_1:139)">
<path d="M118.252 1.74756H1.74759V118.252H118.252V1.74756Z" stroke="#FF5641" stroke-width="6" stroke-miterlimit="10" stroke-linecap="square"/>
<path d="M45.2621 50.3011C45.2621 50.3011 58.7184 43.6894 57.2621 32.7671C55.8058 21.8448 74.4466 33.1166 66.1456 49.1069H85.3689C87.9029 49.1069 89.9417 51.1457 89.9417 53.6797V54.1457C89.9417 56.6797 87.9029 58.7186 85.3689 58.7186H80.7961H84.2912C86.8252 58.7186 88.8641 60.7574 88.8641 63.2914V64.0195C88.8641 66.5535 86.8252 68.5923 84.2912 68.5923H78.7573H81.7573C84.2912 68.5923 86.3301 70.6312 86.3301 73.1651V73.3982C86.3301 75.9321 84.2912 77.971 81.7573 77.971H76.9514H78.1456C80.6796 77.971 82.7184 80.0098 82.7184 82.5438C82.7184 85.0778 80.6796 87.1166 78.1456 87.1166H70.3689C64.9806 87.1166 59.6505 86.4758 54.4077 85.2234L45.233 83.0098V50.3011H45.2621Z" stroke="#1A1A1A" stroke-width="2" stroke-miterlimit="10" stroke-linecap="round" stroke-linejoin="round"/>
<path d="M45.2621 87.7864H33.9029C32.6796 87.7864 31.6893 86.7961 31.6893 85.5728V50.1262C31.6893 48.9029 32.6796 47.9126 33.9029 47.9126H43.0485C44.2718 47.9126 45.2621 48.9029 45.2621 50.1262V87.7864Z" stroke="#1A1A1A" stroke-width="2" stroke-miterlimit="10" stroke-linecap="round" stroke-linejoin="round"/>
</g>
<defs>
<clipPath id="clip0_1:139">
<rect width="120" height="120" fill="white"/>
</clipPath>
</defs>
</svg>
