<svg width="145" height="90" viewBox="0 0 145 90" fill="none" xmlns="http://www.w3.org/2000/svg">
<path d="M11.1274 75.4577H6.63496V88.8229H4.56154V75.4577H0V73.3694H11.1274V75.4577Z" fill="white"/>
<path d="M26.7472 81.0962C26.7472 85.4817 23.6371 89.0318 19.2829 89.0318C14.9287 89.0318 11.8185 85.4817 11.8185 81.0962C11.8185 76.7108 14.9287 73.2302 19.2829 73.2302C23.6371 73.2302 26.7472 76.7108 26.7472 81.0962ZM24.5355 81.0962C24.5355 77.8941 22.393 75.3185 19.2137 75.3185C16.0345 75.3185 13.892 77.8941 13.892 81.0962C13.892 84.2983 16.0345 86.8739 19.2137 86.8739C22.4621 86.8739 24.5355 84.2983 24.5355 81.0962Z" fill="white"/>
<path d="M39.6716 73.3694V88.8925H37.5981V82.6276C36.4923 83.3237 34.6262 83.6717 33.5204 83.5325C30.9632 83.3933 28.7515 81.9315 28.7515 77.8941V73.3694H30.8941V77.7548C30.8941 80.2608 31.7925 81.5138 33.5895 81.653C35.11 81.7922 36.6996 81.2354 37.6672 80.6089V73.3694H39.6716Z" fill="white"/>
<path d="M46.5829 81.7229L44.6477 83.9504V88.8232H42.5052V73.3H44.6477V80.6788L51.0063 73.3H53.7708L48.0343 79.9826L54.2546 88.7536H51.6283L46.5829 81.7229Z" fill="white"/>
<path d="M64.4835 84.5769H59.0235L57.503 88.8232H55.2222L60.7514 73.3H62.8248L68.3539 88.8232H66.0732L64.4835 84.5769ZM63.7233 82.4886L61.719 76.5021L59.7147 82.4886H63.7233Z" fill="white"/>
<path d="M87.0839 78.312C87.0839 81.0964 85.1487 83.3239 82.0385 83.3239H78.3755V88.8232H76.3021V73.3H82.0385C85.2178 73.3697 87.0839 75.5972 87.0839 78.312ZM84.9413 78.312C84.9413 76.7806 83.9737 75.458 82.1077 75.458H78.4446V81.2356H82.1077C83.9046 81.2356 84.9413 79.8434 84.9413 78.312Z" fill="white"/>
<path d="M103.671 81.0962C103.671 85.4817 100.561 89.0318 96.2069 89.0318C91.8527 89.0318 88.7426 85.4817 88.7426 81.0962C88.7426 76.7108 91.8527 73.2302 96.2069 73.2302C100.561 73.2302 103.671 76.7108 103.671 81.0962ZM101.529 81.0962C101.529 77.8941 99.3862 75.3185 96.2069 75.3185C93.0277 75.3185 90.8852 77.8941 90.8852 81.0962C90.8852 84.2983 93.0277 86.8739 96.2069 86.8739C99.3862 86.8739 101.529 84.2983 101.529 81.0962Z" fill="white"/>
<path d="M117.287 84.4375L119.222 85.4121C117.978 87.57 115.628 89.0318 112.863 89.0318C108.509 89.0318 105.399 85.4817 105.399 81.0962C105.399 76.7108 108.509 73.2302 112.863 73.2302C115.628 73.2302 117.909 74.692 119.222 76.85L117.287 77.8245C116.388 76.2931 114.799 75.3185 112.863 75.3185C109.684 75.3185 107.542 77.8941 107.542 81.0962C107.542 84.2983 109.684 86.8739 112.863 86.8739C114.868 86.8739 116.388 85.8993 117.287 84.4375Z" fill="white"/>
<path d="M131.593 75.4577H127.032V88.8229H124.958V75.4577H120.397V73.3694H131.524V75.4577H131.593Z" fill="white"/>
<path d="M140.233 84.5769H134.773L133.252 88.8232H130.971L136.5 73.3H138.574L144.103 88.8232H141.684L140.233 84.5769ZM139.472 82.4886L137.468 76.5021L135.464 82.4886H139.472Z" fill="white"/>
<path d="M79.2048 12.6692H69.4597V31.3248H79.2048C82.315 31.3248 84.8031 30.4895 86.6001 28.8188C88.397 27.1482 89.2264 24.851 89.2264 21.997C89.2264 19.0733 88.3279 16.7762 86.6001 15.1752C84.8031 13.5045 82.3841 12.6692 79.2048 12.6692Z" fill="white"/>
<path d="M42.4361 0V59.5169H101.598V0H42.4361ZM54.462 49.9803C52.4577 49.9803 50.7989 48.3097 50.7989 46.1517C50.7989 44.133 52.4577 42.4624 54.462 42.4624C56.6045 42.4624 58.2633 44.133 58.2633 46.1517C58.2633 48.3097 56.6045 49.9803 54.462 49.9803ZM89.572 31.2551C87.153 33.6218 83.9737 34.8052 80.1033 34.8052H69.5289V48.3097C69.5289 49.3538 68.6995 50.2587 67.5937 50.2587C66.557 50.2587 65.6585 49.4234 65.6585 48.3097V9.25819H80.1033C83.9737 9.25819 87.153 10.4416 89.572 12.8083C91.991 15.1751 93.1659 18.2379 93.1659 22.0665C93.1659 25.8951 91.991 28.8883 89.572 31.2551Z" fill="white"/>
</svg>
