<svg width="19" height="18" viewBox="0 0 19 18" fill="none" xmlns="http://www.w3.org/2000/svg">
<path d="M9.02419 4.40603C8.86561 4.40603 8.70876 4.41412 8.55423 4.42995C8.39969 4.44578 8.2473 4.46923 8.0975 4.50002C7.9477 4.53082 7.80056 4.56894 7.65637 4.61395L7.23315 4.76935L6.83021 4.96392L6.44997 5.19528L6.09468 5.46102L5.76684 5.75883L5.46875 6.08638L5.20272 6.44126L4.97106 6.82115L4.77638 7.22364C4.71786 7.3613 4.66581 7.50243 4.62075 7.64651C4.57568 7.79059 4.53756 7.93767 4.50671 8.08729C4.47586 8.23692 4.4524 8.38914 4.43652 8.54356C4.42063 8.69798 4.41266 8.85465 4.41266 9.01305C4.41266 9.17146 4.42075 9.32813 4.43652 9.48255C4.4522 9.63574 4.47563 9.78804 4.50671 9.93887C4.53756 10.0891 4.57568 10.2356 4.62075 10.3797C4.66581 10.5237 4.7178 10.6648 4.77638 10.8025L4.97106 11.205L5.20272 11.5848L5.46875 11.9398L5.76684 12.2673L6.09468 12.5651L6.44997 12.8309L6.83021 13.0622L7.23315 13.2568L7.65637 13.4122L8.0975 13.5261C8.24846 13.5572 8.4009 13.5806 8.55423 13.5963C8.71037 13.6122 8.86723 13.6202 9.02419 13.6201C9.18276 13.6201 9.33961 13.612 9.49408 13.5963C9.64741 13.5806 9.79985 13.5572 9.95081 13.5261L10.392 13.4122L10.8152 13.2568L11.2181 13.0622L11.5984 12.8309L11.9537 12.5651L12.2816 12.2673L12.5797 11.9398L12.8457 11.5848L13.0774 11.205L13.2721 10.8025L13.4277 10.3797C13.4727 10.2356 13.5109 10.0885 13.5417 9.93887L13.6119 9.48249C13.6277 9.32807 13.6358 9.1714 13.6358 9.013C13.6358 8.85459 13.6277 8.69792 13.6119 8.5435C13.5962 8.39033 13.5728 8.23804 13.5417 8.08724C13.5109 7.93703 13.4727 7.79059 13.4277 7.64645L13.2721 7.22358L13.0774 6.8211L12.8457 6.4412L12.5797 6.08632L12.2816 5.75877L11.9537 5.46097L11.5984 5.19523L11.2181 4.96386L10.8152 4.76929L10.392 4.61389L9.95081 4.49997L9.49408 4.42989C9.33796 4.41395 9.18112 4.40596 9.02419 4.40598V4.40603ZM9.02419 5.9962C9.12904 5.9962 9.2325 6.0014 9.33441 6.01168L9.63481 6.05715L9.92499 6.13109L10.2029 6.23202L10.467 6.35853L10.7155 6.50902L10.9477 6.68216L11.1618 6.87638L11.3562 7.09025L11.5295 7.32225L11.6801 7.57101L11.8067 7.83501C11.8447 7.92537 11.8784 8.01797 11.9078 8.11265C11.9371 8.20734 11.9618 8.3041 11.9817 8.40266C12.0016 8.50121 12.0164 8.6015 12.0272 8.70335L12.0427 9.01334C12.0427 9.11808 12.0375 9.22149 12.0272 9.32339C12.0169 9.4253 12.0018 9.52559 11.9817 9.62408C11.9617 9.72258 11.9369 9.81935 11.9078 9.91409L11.8067 10.1917L11.6801 10.4557L11.5295 10.7044L11.3562 10.9365L11.1618 11.1504L10.9477 11.3446L10.7155 11.5177L10.467 11.6682L10.2029 11.7947L9.92499 11.8956L9.63481 11.9696L9.33441 12.015C9.2313 12.0253 9.12775 12.0305 9.02413 12.0305C8.92049 12.0305 8.81691 12.0253 8.71379 12.015L8.41339 11.9696C8.31477 11.9496 8.21795 11.9249 8.12315 11.8956L7.84528 11.7947L7.5811 11.6682L7.33269 11.5177L7.10045 11.3446L6.88636 11.1504L6.69196 10.9365L6.51865 10.7044L6.36799 10.4557L6.24147 10.1917L6.14038 9.91409L6.06643 9.62408L6.02097 9.32339C6.01063 9.22037 6.00546 9.11689 6.00549 9.01334C6.00546 8.90982 6.01063 8.80636 6.02097 8.70335C6.03119 8.6015 6.04639 8.50116 6.06643 8.40266C6.08628 8.30484 6.11098 8.20807 6.14044 8.11271L6.24153 7.83507L6.36805 7.57106L6.51871 7.32231L6.69202 7.0903L6.88642 6.87644L7.10051 6.68222L7.33274 6.50908L7.58115 6.35859L7.84534 6.23208C7.93627 6.19389 8.02902 6.16021 8.12327 6.13115L8.4135 6.05721C8.51211 6.03722 8.61252 6.02197 8.7139 6.01174C8.81703 6.00141 8.9206 5.99624 9.02424 5.99626L9.02419 5.9962Z" fill="#1A1A1A"/>
<path d="M13.8228 3.09547C13.7862 3.09548 13.7496 3.09733 13.7131 3.10102C13.6767 3.1047 13.6405 3.11022 13.6046 3.11754C13.5687 3.12486 13.5332 3.13398 13.4982 3.14487C13.4633 3.15576 13.4288 3.16841 13.3951 3.18276C13.3614 3.19714 13.3284 3.2132 13.2963 3.23089C13.2641 3.24854 13.2329 3.2678 13.2027 3.2886C13.1725 3.30942 13.1433 3.33174 13.1153 3.3555C13.0873 3.37922 13.0605 3.40435 13.035 3.43077C13.0095 3.45721 12.9853 3.48491 12.9625 3.51378C12.9398 3.54266 12.9185 3.57266 12.8987 3.60367C12.8789 3.63467 12.8607 3.66663 12.8441 3.69946C12.8275 3.7323 12.8125 3.76597 12.7992 3.80032C12.786 3.83467 12.7744 3.86967 12.7646 3.90518C12.7548 3.94068 12.7468 3.97666 12.7406 4.01297C12.7344 4.04928 12.7299 4.08587 12.7274 4.12262C12.7255 4.14865 12.7246 4.17474 12.7246 4.20084C12.7246 4.23771 12.7264 4.27455 12.7301 4.31124C12.7337 4.3479 12.7392 4.38436 12.7465 4.42048C12.7537 4.4566 12.7628 4.49232 12.7736 4.52753C12.7845 4.56274 12.797 4.59739 12.8113 4.63134C12.8256 4.6653 12.8415 4.69852 12.8591 4.73088C12.8766 4.76323 12.8958 4.79467 12.9164 4.8251C12.9371 4.8555 12.9593 4.88485 12.9829 4.91303C13.0064 4.94122 13.0314 4.96822 13.0577 4.9939C13.084 5.01957 13.1115 5.04391 13.1402 5.06681C13.1689 5.08973 13.1987 5.11119 13.2295 5.13111C13.2603 5.15103 13.2921 5.16938 13.3247 5.1861C13.3574 5.20283 13.3908 5.21791 13.4249 5.23128C13.459 5.24463 13.4938 5.25626 13.5291 5.26611C13.5644 5.27596 13.6001 5.28401 13.6362 5.29026C13.6723 5.29654 13.7086 5.30099 13.7451 5.30361C13.771 5.30545 13.7969 5.30638 13.8228 5.30638C13.8595 5.30639 13.8961 5.30456 13.9325 5.30089C13.9689 5.29721 14.0051 5.29169 14.041 5.28437C14.0769 5.27705 14.1124 5.26793 14.1474 5.25704C14.1824 5.24615 14.2168 5.2335 14.2505 5.21915C14.2842 5.20479 14.3172 5.18875 14.3494 5.17108C14.3815 5.15341 14.4127 5.13413 14.4429 5.11331C14.4732 5.09251 14.5023 5.07021 14.5303 5.04647C14.5583 5.02273 14.5851 4.99758 14.6106 4.97114C14.6362 4.9447 14.6603 4.917 14.6831 4.88813C14.7058 4.85925 14.7271 4.82925 14.7469 4.79824C14.7667 4.76723 14.7849 4.73524 14.8015 4.7024C14.8181 4.66955 14.8331 4.63589 14.8464 4.60153C14.8597 4.56718 14.8712 4.53219 14.881 4.49668C14.8908 4.46117 14.8988 4.42519 14.905 4.38888C14.9113 4.35258 14.9157 4.31598 14.9183 4.27923C14.9201 4.2532 14.921 4.22711 14.921 4.20101C14.921 4.16416 14.9192 4.12734 14.9156 4.09067C14.9119 4.05401 14.9064 4.01755 14.8991 3.98143C14.8919 3.94531 14.8828 3.90959 14.872 3.87438C14.8612 3.83917 14.8486 3.80452 14.8343 3.77057C14.8201 3.73661 14.8041 3.70339 14.7866 3.67103C14.769 3.63868 14.7499 3.60724 14.7292 3.57681C14.7085 3.54639 14.6863 3.51702 14.6627 3.48883C14.6391 3.46063 14.6142 3.43364 14.5879 3.40795C14.5617 3.38228 14.5341 3.35795 14.5054 3.33505C14.4768 3.31215 14.447 3.29071 14.4161 3.27081C14.3853 3.25089 14.3535 3.23253 14.3209 3.21581C14.2882 3.19908 14.2548 3.184 14.2207 3.17063C14.1866 3.15728 14.1518 3.14565 14.1165 3.1358C14.0813 3.12594 14.0455 3.11786 14.0094 3.11159C13.9734 3.10534 13.937 3.1009 13.9005 3.0983C13.8746 3.09646 13.8487 3.09553 13.8228 3.09553V3.09547Z" fill="#1A1A1A"/>
<path d="M8.14963 0.000168002C7.64808 -0.000640774 7.20048 0.00143865 6.7984 0.00710009L5.72042 0.0359849C5.40106 0.0498497 5.11892 0.0679303 4.86565 0.091327C4.73902 0.102997 4.61956 0.116053 4.50633 0.130437C4.39858 0.144018 4.29112 0.159832 4.18403 0.177867C4.08207 0.195198 3.9853 0.213914 3.89252 0.234249C3.79975 0.254584 3.71113 0.276538 3.62563 0.300108C3.54204 0.323156 3.45911 0.348507 3.37693 0.376133C3.2964 0.403285 3.21783 0.432054 3.14025 0.462788C2.98508 0.524255 2.83372 0.59323 2.67786 0.670526C2.55793 0.730029 2.44713 0.790283 2.34187 0.854061C2.23661 0.917839 2.1369 0.985199 2.03927 1.05857C1.93873 1.13449 1.84182 1.21511 1.74886 1.30016C1.65169 1.38866 1.55245 1.486 1.44933 1.59478C1.31975 1.73072 1.20716 1.85746 1.10721 1.98184C1.05724 2.044 1.01045 2.10547 0.966372 2.16728C0.922781 2.2282 0.881109 2.29047 0.841416 2.35399C0.802133 2.41696 0.764929 2.48109 0.729343 2.54706C0.693202 2.61417 0.659045 2.68233 0.626917 2.75145C0.561175 2.89264 0.499824 3.04469 0.438588 3.21442C0.393159 3.33989 0.352479 3.46704 0.316636 3.59558C0.280068 3.72695 0.247543 3.86438 0.218543 4.01302C0.189542 4.16167 0.164239 4.32152 0.141998 4.49829C0.11803 4.69206 0.0988836 4.8864 0.0845748 5.08113C0.0683993 5.29522 0.0549967 5.53081 0.0440205 5.79303L0.0180242 6.66489L0.00404386 7.72768L0 9.0123L0.0118428 10.8804L0.0488154 12.2958L0.0772959 12.8486L0.112882 13.3067C0.12429 13.4302 0.138563 13.5534 0.15569 13.6762C0.171287 13.7853 0.18804 13.8807 0.206065 13.9633C0.242637 14.1313 0.285883 14.2977 0.3357 14.4622C0.383399 14.6198 0.437947 14.7751 0.499188 14.9279C0.559384 15.0775 0.625242 15.2218 0.696876 15.3607C0.768511 15.4996 0.845922 15.633 0.92911 15.7612C1.0123 15.8894 1.10126 16.0123 1.19624 16.13C1.2911 16.2477 1.39201 16.3604 1.49855 16.4676C1.60525 16.5751 1.71778 16.6773 1.83638 16.7745C1.95639 16.8727 2.08113 16.9651 2.21015 17.0512C2.32991 17.1313 2.4484 17.2046 2.56775 17.2719C2.6871 17.3392 2.80749 17.4002 2.93124 17.4557C3.05498 17.5113 3.18184 17.5612 3.31436 17.6062C3.44689 17.6511 3.58496 17.6911 3.73088 17.7266C3.87681 17.762 4.03129 17.7932 4.19478 17.8203C4.35826 17.8475 4.53302 17.8708 4.71973 17.8908C4.90644 17.9109 5.10563 17.9274 5.31967 17.9413C5.5337 17.9552 5.76247 17.9663 6.00828 17.9752C6.388 17.9889 6.96281 17.9969 7.62566 18L9.77152 17.9957L11.8035 17.9672L12.5761 17.9455L13.0795 17.9196C13.1875 17.9108 13.2932 17.9004 13.3952 17.8882C13.4973 17.876 13.5979 17.8621 13.6959 17.8463C13.7938 17.8304 13.8896 17.8128 13.9837 17.7931C14.0768 17.7738 14.1693 17.7521 14.2613 17.7282C14.3523 17.7051 14.4421 17.6789 14.5309 17.651C14.6198 17.6231 14.7077 17.5929 14.7951 17.5605C14.883 17.528 14.9701 17.4933 15.0563 17.4565C15.1432 17.4195 15.2299 17.38 15.3169 17.3381C15.4505 17.2737 15.5581 17.22 15.6525 17.1677C15.7414 17.1189 15.8269 17.0644 15.9087 17.0045C15.9893 16.9451 16.0695 16.8775 16.1619 16.7924C16.2544 16.7072 16.3591 16.6046 16.4888 16.4749C16.6028 16.361 16.6989 16.2619 16.7818 16.1719C16.8647 16.0818 16.9346 16.0008 16.9958 15.9227C17.0542 15.8485 17.1086 15.7714 17.1587 15.6915C17.2076 15.6135 17.2527 15.5325 17.2986 15.4426C17.3677 15.3075 17.4292 15.1823 17.4842 15.0615C17.5377 14.9451 17.5865 14.8266 17.6306 14.7063C17.6741 14.587 17.7117 14.4656 17.7433 14.3427C17.7759 14.2161 17.804 14.0826 17.8283 13.9361C17.8525 13.7896 17.873 13.6301 17.8908 13.4521C17.9086 13.274 17.9238 13.0773 17.937 12.8562L17.9723 12.114L18.0025 11.191L18.0242 10.1627L18.0325 9.08752L18.0132 6.97574L17.9874 6.02988L17.9521 5.21775L17.9082 4.5846C17.8923 4.4084 17.875 4.26964 17.8568 4.17582C17.8366 4.07216 17.814 3.96897 17.7891 3.86635C17.7648 3.76649 17.7381 3.66723 17.7091 3.56866C17.6807 3.47263 17.65 3.37734 17.6168 3.28287C17.5839 3.18958 17.5492 3.09824 17.5128 3.00887C17.4764 2.9195 17.437 2.83221 17.396 2.74677C17.3549 2.66133 17.312 2.57797 17.2669 2.49651C17.2217 2.41506 17.1747 2.33562 17.1255 2.25815C17.0764 2.18068 17.0252 2.10518 16.9719 2.0317C16.9189 1.95845 16.8636 1.88688 16.8061 1.81708C16.7489 1.74767 16.6895 1.68009 16.628 1.61443C16.5667 1.54885 16.5032 1.48523 16.4378 1.42367C16.3723 1.36209 16.3049 1.30247 16.2354 1.24482C16.1656 1.18697 16.094 1.13131 16.0207 1.07792C15.9467 1.02398 15.871 0.972311 15.7938 0.922981C15.7155 0.87295 15.6358 0.825249 15.5547 0.779943C15.4722 0.733877 15.3884 0.690185 15.3034 0.648921C15.1624 0.580348 15.0319 0.519518 14.9038 0.465561C14.7779 0.412012 14.6496 0.364452 14.5192 0.323042C14.3881 0.281737 14.2516 0.246324 14.1014 0.215764C13.9512 0.185204 13.7874 0.159728 13.602 0.138064C13.4166 0.1164 13.2096 0.0988965 12.9729 0.0843385C12.7361 0.0697806 12.4699 0.0583412 12.1658 0.0490981L11.1326 0.0259905L9.82484 0.0105661L8.15021 0.000282596L8.14963 0.000168002ZM9.01936 1.58895L11.4343 1.6027L12.3453 1.62026C12.5962 1.62731 12.7877 1.63557 12.8999 1.6451C13.0461 1.65741 13.1853 1.67283 13.3185 1.69132C13.4463 1.70896 13.5734 1.73091 13.6997 1.75712C13.8211 1.78254 13.9368 1.81142 14.0475 1.844C14.1583 1.87659 14.264 1.9131 14.3655 1.95348C14.467 1.99386 14.5641 2.03828 14.6575 2.08693C14.7502 2.1352 14.8402 2.18833 14.9273 2.24608C15.0139 2.30356 15.0975 2.36549 15.1786 2.43221C15.2597 2.49894 15.3383 2.57046 15.4151 2.64694C15.4962 2.72765 15.5709 2.80986 15.6398 2.89466C15.7085 2.97894 15.772 3.06728 15.8301 3.15919C15.8888 3.25241 15.9417 3.34917 15.9885 3.4489C16.0363 3.55058 16.0793 3.65803 16.1179 3.77224C16.1565 3.88645 16.1908 4.00783 16.2213 4.13752C16.2532 4.27502 16.2799 4.41367 16.3013 4.55317C16.3245 4.70106 16.3442 4.85877 16.361 5.02763C16.3777 5.1965 16.3916 5.37656 16.403 5.56923C16.4121 5.72376 16.4201 5.92769 16.4269 6.16853L16.4438 6.98973L16.4567 9.00127L16.442 11.0109L16.4243 11.8297L16.4 12.4253C16.3831 12.7041 16.3654 12.9386 16.3441 13.1426C16.3334 13.2446 16.3219 13.339 16.309 13.4276C16.297 13.5113 16.2828 13.5946 16.2663 13.6775C16.2513 13.7531 16.2339 13.8283 16.2141 13.9028C16.1951 13.9739 16.1737 14.0444 16.15 14.1141C16.1261 14.1841 16.1001 14.2534 16.0721 14.3218C16.0424 14.3941 16.0111 14.4657 15.9782 14.5365C15.9489 14.5998 15.9181 14.6613 15.8855 14.7212C15.8533 14.7805 15.8191 14.8387 15.7829 14.8957C15.7471 14.9521 15.7096 15.0069 15.6703 15.06C15.6312 15.113 15.5902 15.1644 15.5474 15.2144C15.5048 15.2641 15.4603 15.3123 15.4142 15.3588C15.368 15.4053 15.32 15.4502 15.2703 15.4935C15.2206 15.5369 15.1691 15.5785 15.1158 15.6186C15.0625 15.6586 15.0073 15.6971 14.9503 15.734C14.8933 15.7708 14.8345 15.8062 14.7737 15.8399C14.713 15.8737 14.6504 15.9059 14.586 15.9366C14.5205 15.9677 14.454 15.9969 14.3867 16.024C14.3172 16.0521 14.2469 16.0782 14.1759 16.1023C14.0315 16.1515 13.8791 16.1948 13.7187 16.232C13.5516 16.2706 13.3829 16.3022 13.2131 16.3266C13.1479 16.3362 12.9978 16.3451 12.7829 16.3534L11.964 16.3762L9.64223 16.4064L7.21209 16.4102L6.25773 16.4L5.63804 16.3807L5.18108 16.3486C5.0392 16.3366 4.90725 16.3233 4.78362 16.3083C4.65999 16.2932 4.54486 16.2764 4.43654 16.2574C4.3339 16.2397 4.23187 16.2185 4.13065 16.1939C4.03836 16.1714 3.947 16.1453 3.85682 16.1154C3.76988 16.0865 3.68675 16.0548 3.60587 16.0198C3.52499 15.9849 3.44643 15.9466 3.36861 15.9047C3.29079 15.8629 3.21379 15.8175 3.13591 15.768C3.07716 15.7307 3.02037 15.6929 2.96572 15.6529C2.91107 15.6128 2.85827 15.5729 2.80744 15.5311C2.7566 15.4893 2.70778 15.4462 2.6607 15.4018C2.61393 15.3577 2.56876 15.3118 2.52529 15.2644C2.48196 15.2172 2.44054 15.1685 2.40079 15.1182C2.36089 15.0676 2.32288 15.0156 2.28681 14.9622C2.25022 14.908 2.21559 14.8525 2.183 14.7958C2.15007 14.7386 2.11876 14.6795 2.08901 14.6184C2.05876 14.5563 2.03054 14.4931 2.00438 14.4291C1.9778 14.364 1.95262 14.2967 1.92893 14.2273C1.88156 14.0884 1.83997 13.9405 1.8038 13.7828C1.76764 13.625 1.73679 13.4575 1.71068 13.279C1.68457 13.1005 1.66354 12.9112 1.64678 12.7101C1.63442 12.5619 1.6246 12.3311 1.61709 12.04L1.60138 11.0044L1.60715 8.36464L1.65262 5.84219L1.68728 4.95346L1.70692 4.6597C1.71374 4.58125 1.72079 4.52313 1.72801 4.48824C1.75181 4.37345 1.77578 4.26663 1.80057 4.16664C1.82372 4.0723 1.84947 3.97862 1.87781 3.8857C1.90473 3.79801 1.93309 3.71586 1.96342 3.63804C1.99267 3.56266 2.02526 3.48862 2.06111 3.41615C2.09612 3.34567 2.13372 3.27819 2.17457 3.21251C2.21541 3.14683 2.25949 3.08311 2.30755 3.01973C2.35562 2.95636 2.40738 2.89379 2.46371 2.83036C2.52003 2.76693 2.58086 2.70287 2.64684 2.63684C2.72372 2.55951 2.80378 2.4854 2.88681 2.41471C2.96521 2.34801 3.04696 2.28537 3.13175 2.22702C3.21512 2.16925 3.30062 2.11783 3.38964 2.07058C3.47866 2.02332 3.57121 1.98063 3.66855 1.94221C3.76589 1.9038 3.86815 1.86942 3.97646 1.83823C4.09026 1.80631 4.20532 1.77907 4.32135 1.7566C4.44336 1.73268 4.57294 1.71183 4.71129 1.69363C4.84965 1.67543 4.99685 1.65972 5.15421 1.64608C5.26398 1.63661 5.45312 1.62818 5.70216 1.62107L6.60857 1.60316L9.01976 1.58843L9.01936 1.58895Z" fill="#1A1A1A"/>
</svg>
